<?xml version="1.0" encoding="UTF-8" standalone="no"?>
<svg
   width="32.622986"
   height="58.785004"
   viewBox="0 0 32.622986 58.785004"
   version="1.1"
   style="stroke-linecap:round;stroke-linejoin:round;stroke-miterlimit:1.5"
   id="svg9"
   xmlns="http://www.w3.org/2000/svg"
   xmlns:svg="http://www.w3.org/2000/svg">
  <defs
     id="defs9" />
  <path
     d="m 20.177993,42.407 c 0,-3.891 -3.336,-4.466 -3.336,-14.894"
     style="fill:none;stroke:#748d8f;stroke-width:1.5px;stroke-opacity:1"
     id="path1" />
  <path
     d="m 23.765993,32.334 v 9.997"
     style="fill:none;stroke:#748d8f;stroke-width:1.5px;stroke-opacity:1"
     id="path2" />
  <path
     d="m 27.251993,42.162 c 0,-3.435 2.17,-7.598 2.17,-13.068 0,-5.471 -0.66,-10.289 -0.837,-13.274"
     style="fill:none;stroke:#748d8f;stroke-width:1.5px;stroke-opacity:1"
     id="path3" />
  <path
     d="m 27.319993,16.251 c 0,0 3.384,-0.265 4.553,-5.546"
     style="fill:none;stroke:#748d8f;stroke-width:1.5px;stroke-opacity:1"
     id="path4" />
  <path
     d="m 22.156993,5.8529996 c 0,0 -1.419,-4.409 -2.619,-4.409 -1.2,0 -3.299,5.753 -3.299,14.4280004 0,2.241 -11.6889999,8.123 -9.2109999,21.709 0.398,2.18 1.394,6.337 1.394,6.353 0,0.016 2.5179999,9.529 -2.869,9.529 -1.121,0 -1.658,-0.62 -2.779,-0.62 -1.12,0 -2.02399996,0.765 -2.02399996,1.758 0,0.993 1.10999996,3.434 5.06499996,3.434 7.1469999,0 7.4189999,-5.987 7.4189999,-9.867 0,-3.88 -0.036,-2.679 -0.036,-3.314 0,-2.127 1.772,-2.56 2.43,-2.801"
     style="fill:none;stroke:#748d8f;stroke-width:1.5px;stroke-opacity:1"
     id="path5" />
  <ellipse
     transform="matrix(0.92765078,-0.37344882,0.37345044,0.92765013,0,0)"
     cx="20.477234"
     cy="17.924828"
     rx="1.1177608"
     ry="1.4385843"
     style="fill:#59737f;fill-opacity:1;stroke-width:1.03697"
     id="ellipse5" />
  <path
     d="m 24.442993,4.3569996 c 3.543,0 4.374,4.288 7.066,4.288"
     style="fill:none;stroke:#748d8f;stroke-width:1.5px;stroke-opacity:1"
     id="path6" />
  <path
     d="m 26.936993,3.0839996 c 0,0 -1.015,-2.33399998 -1.891,-2.33399998 -0.876,0 -2.14,2.42899998 -2.14,2.42899998"
     style="fill:none;stroke:#748d8f;stroke-width:1.5px;stroke-opacity:1"
     id="path7" />
</svg>
