<?xml version="1.0" encoding="UTF-8" standalone="no"?>
<svg
   width="600"
   height="75"
   viewBox="0 0 600 75"
   version="1.1"
   style="stroke-linecap: round; stroke-linejoin: round; stroke-miterlimit: 1.5;"
   id="svg9"
   sodipodi:docname="cat.svg"
   inkscape:version="1.3.2 (091e20ef0f, 2023-11-25, custom)"
   xmlns:inkscape="http://www.inkscape.org/namespaces/inkscape"
   xmlns:sodipodi="http://sodipodi.sourceforge.net/DTD/sodipodi-0.dtd"
   xmlns="http://www.w3.org/2000/svg"
   xmlns:svg="http://www.w3.org/2000/svg">
  <defs
     id="defs9" />
  <sodipodi:namedview
     id="namedview9"
     pagecolor="#ffffff"
     bordercolor="#111111"
     borderopacity="1"
     inkscape:showpageshadow="0"
     inkscape:pageopacity="0"
     inkscape:pagecheckerboard="1"
     inkscape:deskcolor="#d1d1d1"
     inkscape:zoom="1.8526198"
     inkscape:cx="207.54394"
     inkscape:cy="-140.07192"
     inkscape:window-width="1344"
     inkscape:window-height="1240"
     inkscape:window-x="430"
     inkscape:window-y="71"
     inkscape:window-maximized="0"
     inkscape:current-layer="svg9" />
  <path
     transform="matrix(1,0,0,1,92.3579,4.11772)"
     d="M105.809,48.397C105.809,44.506 102.473,43.931 102.473,33.503"
     style="fill:none;stroke:#d9a34b;stroke-width:1.5px;stroke-opacity:1"
     id="path1" />
  <path
     transform="matrix(1,0,0,1,92.3579,4.11772)"
     d="M109.397,38.324L109.397,48.321"
     style="fill:none;stroke:#d9a34b;stroke-width:1.5px;stroke-opacity:1"
     id="path2" />
  <path
     transform="matrix(1,0,0,1,92.3579,4.11772)"
     d="M112.883,48.152C112.883,44.717 115.053,40.554 115.053,35.084C115.053,29.613 114.393,24.795 114.216,21.81"
     style="fill:none;stroke:#d9a34b;stroke-width:1.5px;stroke-opacity:1"
     id="path3" />
  <path
     transform="matrix(1,0,0,1,92.3579,4.11772)"
     d="M112.951,22.241C112.951,22.241 116.335,21.976 117.504,16.695"
     style="fill:none;stroke:#d9a34b;stroke-width:1.5px;stroke-opacity:1"
     id="path4" />
  <path
     transform="matrix(1,0,0,1,92.3579,4.11772)"
     d="M107.788,11.843C107.788,11.843 106.369,7.434 105.169,7.434C103.969,7.434 101.87,13.187 101.87,21.862C101.87,24.103 90.181,29.985 92.659,43.571C93.057,45.751 94.053,49.908 94.053,49.924C94.053,49.94 96.571,59.453 91.184,59.453C90.063,59.453 89.526,58.833 88.405,58.833C87.285,58.833 86.381,59.598 86.381,60.591C86.381,61.584 87.491,64.025 91.446,64.025C98.593,64.025 98.865,58.038 98.865,54.158C98.865,50.278 98.829,51.479 98.829,50.844C98.829,48.717 100.601,48.284 101.259,48.043"
     style="fill:none;stroke:#d9a34b;stroke-width:1.5px;stroke-opacity:1"
     id="path5" />
  <ellipse
     transform="matrix(1.00474,-0.404483,0.370766,0.920982,85.4108,49.8267)"
     cx="111.892"
     cy="15.766"
     rx="1.032"
     ry="1.449"
     style="fill: rgb(47, 44, 62);"
     id="ellipse5" />
  <path
     transform="matrix(1,0,0,1,92.3579,4.11772)"
     d="M110.074,10.347C113.617,10.347 114.448,14.635 117.14,14.635"
     style="fill:none;stroke:#d9a34b;stroke-width:1.5px;stroke-opacity:1"
     id="path6" />
  <path
     transform="matrix(1,0,0,1,92.3579,4.11772)"
     d="M112.568,9.074C112.568,9.074 111.553,6.74 110.677,6.74C109.801,6.74 108.537,9.169 108.537,9.169"
     style="fill:none;stroke:#d9a34b;stroke-width:1.5px;stroke-opacity:1"
     id="path7" />
  <path
     transform="matrix(3.96613,0,0,5.89452,-177.012,-336.835)"
     d="M93.717,66.428L195.647,66.428"
     style="fill:none;stroke:#333c33;stroke-width:0.3px;stroke-opacity:1"
     id="path8" />
  <path
     transform="matrix(1.78906,0,0,2.78204,-166.7,-130.078)"
     d="M93.717,66.428L195.647,66.428"
     style="fill:none;stroke:#333c33;stroke-width:0.64px;stroke-opacity:1"
     id="path9" />
</svg>
